<svg width="41" height="41" viewBox="0 0 41 41" fill="none" xmlns="http://www.w3.org/2000/svg">
<path d="M41 11.9583V13.6667H0V11.9583C0 7.24163 3.82496 3.41667 8.54167 3.41667H10.25V1.70833C10.25 0.765333 11.0153 0 11.9583 0C12.9013 0 13.6667 0.765333 13.6667 1.70833V3.41667H27.3333V1.70833C27.3333 0.765333 28.0987 0 29.0417 0C29.9847 0 30.75 0.765333 30.75 1.70833V3.41667H32.4583C37.175 3.41667 41 7.24163 41 11.9583ZM41 29.0417C41 35.6358 35.6341 41 29.0417 41C22.4492 41 17.0833 35.6358 17.0833 29.0417C17.0833 22.4475 22.4492 17.0833 29.0417 17.0833C35.6341 17.0833 41 22.4475 41 29.0417ZM32.4583 30.0428L30.75 28.3344V25.625C30.75 24.682 29.9847 23.9167 29.0417 23.9167C28.0987 23.9167 27.3333 24.682 27.3333 25.625V29.0417C27.3333 29.4944 27.5127 29.93 27.8339 30.2495L30.0428 32.4583C30.709 33.1246 31.7921 33.1246 32.4583 32.4583C33.1246 31.7921 33.1246 30.709 32.4583 30.0428ZM13.6667 29.0417C13.6667 24.2088 15.9012 19.9021 19.3879 17.0833H0V32.4583C0 37.175 3.82496 41 8.54167 41H19.3879C15.9012 38.1813 13.6667 33.8745 13.6667 29.0417Z" fill="url(#paint0_linear_23_141)"/>
<defs>
<linearGradient id="paint0_linear_23_141" x1="20.5" y1="0" x2="20.5" y2="41" gradientUnits="userSpaceOnUse">
<stop stop-color="#00EDF9"/>
<stop offset="1" stop-color="#1A7CDE"/>
</linearGradient>
</defs>
</svg>
