<svg width="160" height="99" viewBox="0 0 160 99" fill="none" xmlns="http://www.w3.org/2000/svg">
<circle cx="3" cy="3" r="3" fill="url(#paint0_linear_23_462)"/>
<circle cx="25" cy="3" r="3" fill="url(#paint1_linear_23_462)"/>
<circle cx="47" cy="3" r="3" fill="url(#paint2_linear_23_462)"/>
<circle cx="69" cy="3" r="3" fill="url(#paint3_linear_23_462)"/>
<circle cx="91" cy="3" r="3" fill="url(#paint4_linear_23_462)"/>
<circle cx="113" cy="3" r="3" fill="url(#paint5_linear_23_462)"/>
<circle cx="135" cy="3" r="3" fill="url(#paint6_linear_23_462)"/>
<circle cx="157" cy="3" r="3" fill="url(#paint7_linear_23_462)"/>
<circle cx="3" cy="34" r="3" fill="url(#paint8_linear_23_462)"/>
<circle cx="25" cy="34" r="3" fill="url(#paint9_linear_23_462)"/>
<circle cx="47" cy="34" r="3" fill="url(#paint10_linear_23_462)"/>
<circle cx="69" cy="34" r="3" fill="url(#paint11_linear_23_462)"/>
<circle cx="91" cy="34" r="3" fill="url(#paint12_linear_23_462)"/>
<circle cx="113" cy="34" r="3" fill="url(#paint13_linear_23_462)"/>
<circle cx="135" cy="34" r="3" fill="url(#paint14_linear_23_462)"/>
<circle cx="157" cy="34" r="3" fill="url(#paint15_linear_23_462)"/>
<circle cx="3" cy="65" r="3" fill="url(#paint16_linear_23_462)"/>
<circle cx="25" cy="65" r="3" fill="url(#paint17_linear_23_462)"/>
<circle cx="47" cy="65" r="3" fill="url(#paint18_linear_23_462)"/>
<circle cx="69" cy="65" r="3" fill="url(#paint19_linear_23_462)"/>
<circle cx="91" cy="65" r="3" fill="url(#paint20_linear_23_462)"/>
<circle cx="113" cy="65" r="3" fill="url(#paint21_linear_23_462)"/>
<circle cx="135" cy="65" r="3" fill="url(#paint22_linear_23_462)"/>
<circle cx="157" cy="65" r="3" fill="url(#paint23_linear_23_462)"/>
<circle cx="3" cy="96" r="3" fill="url(#paint24_linear_23_462)"/>
<circle cx="25" cy="96" r="3" fill="url(#paint25_linear_23_462)"/>
<circle cx="47" cy="96" r="3" fill="url(#paint26_linear_23_462)"/>
<circle cx="69" cy="96" r="3" fill="url(#paint27_linear_23_462)"/>
<circle cx="91" cy="96" r="3" fill="url(#paint28_linear_23_462)"/>
<circle cx="113" cy="96" r="3" fill="url(#paint29_linear_23_462)"/>
<circle cx="135" cy="96" r="3" fill="url(#paint30_linear_23_462)"/>
<circle cx="157" cy="96" r="3" fill="url(#paint31_linear_23_462)"/>
<defs>
<linearGradient id="paint0_linear_23_462" x1="-1.74626e-10" y1="2.99995" x2="6" y2="2.99995" gradientUnits="userSpaceOnUse">
<stop stop-color="#00EDF9"/>
<stop offset="1" stop-color="#F45CE0"/>
</linearGradient>
<linearGradient id="paint1_linear_23_462" x1="22" y1="2.99995" x2="28" y2="2.99995" gradientUnits="userSpaceOnUse">
<stop stop-color="#00EDF9"/>
<stop offset="1" stop-color="#F45CE0"/>
</linearGradient>
<linearGradient id="paint2_linear_23_462" x1="44" y1="2.99995" x2="50" y2="2.99995" gradientUnits="userSpaceOnUse">
<stop stop-color="#00EDF9"/>
<stop offset="1" stop-color="#F45CE0"/>
</linearGradient>
<linearGradient id="paint3_linear_23_462" x1="66" y1="2.99995" x2="72" y2="2.99995" gradientUnits="userSpaceOnUse">
<stop stop-color="#00EDF9"/>
<stop offset="1" stop-color="#F45CE0"/>
</linearGradient>
<linearGradient id="paint4_linear_23_462" x1="88" y1="2.99995" x2="94" y2="2.99995" gradientUnits="userSpaceOnUse">
<stop stop-color="#00EDF9"/>
<stop offset="1" stop-color="#F45CE0"/>
</linearGradient>
<linearGradient id="paint5_linear_23_462" x1="110" y1="2.99995" x2="116" y2="2.99995" gradientUnits="userSpaceOnUse">
<stop stop-color="#00EDF9"/>
<stop offset="1" stop-color="#F45CE0"/>
</linearGradient>
<linearGradient id="paint6_linear_23_462" x1="132" y1="2.99995" x2="138" y2="2.99995" gradientUnits="userSpaceOnUse">
<stop stop-color="#00EDF9"/>
<stop offset="1" stop-color="#F45CE0"/>
</linearGradient>
<linearGradient id="paint7_linear_23_462" x1="154" y1="2.99995" x2="160" y2="2.99995" gradientUnits="userSpaceOnUse">
<stop stop-color="#00EDF9"/>
<stop offset="1" stop-color="#F45CE0"/>
</linearGradient>
<linearGradient id="paint8_linear_23_462" x1="-1.74626e-10" y1="34" x2="6" y2="34" gradientUnits="userSpaceOnUse">
<stop stop-color="#00EDF9"/>
<stop offset="1" stop-color="#F45CE0"/>
</linearGradient>
<linearGradient id="paint9_linear_23_462" x1="22" y1="34" x2="28" y2="34" gradientUnits="userSpaceOnUse">
<stop stop-color="#00EDF9"/>
<stop offset="1" stop-color="#F45CE0"/>
</linearGradient>
<linearGradient id="paint10_linear_23_462" x1="44" y1="34" x2="50" y2="34" gradientUnits="userSpaceOnUse">
<stop stop-color="#00EDF9"/>
<stop offset="1" stop-color="#F45CE0"/>
</linearGradient>
<linearGradient id="paint11_linear_23_462" x1="66" y1="34" x2="72" y2="34" gradientUnits="userSpaceOnUse">
<stop stop-color="#00EDF9"/>
<stop offset="1" stop-color="#F45CE0"/>
</linearGradient>
<linearGradient id="paint12_linear_23_462" x1="88" y1="34" x2="94" y2="34" gradientUnits="userSpaceOnUse">
<stop stop-color="#00EDF9"/>
<stop offset="1" stop-color="#F45CE0"/>
</linearGradient>
<linearGradient id="paint13_linear_23_462" x1="110" y1="34" x2="116" y2="34" gradientUnits="userSpaceOnUse">
<stop stop-color="#00EDF9"/>
<stop offset="1" stop-color="#F45CE0"/>
</linearGradient>
<linearGradient id="paint14_linear_23_462" x1="132" y1="34" x2="138" y2="34" gradientUnits="userSpaceOnUse">
<stop stop-color="#00EDF9"/>
<stop offset="1" stop-color="#F45CE0"/>
</linearGradient>
<linearGradient id="paint15_linear_23_462" x1="154" y1="34" x2="160" y2="34" gradientUnits="userSpaceOnUse">
<stop stop-color="#00EDF9"/>
<stop offset="1" stop-color="#F45CE0"/>
</linearGradient>
<linearGradient id="paint16_linear_23_462" x1="-1.74626e-10" y1="65" x2="6" y2="65" gradientUnits="userSpaceOnUse">
<stop stop-color="#00EDF9"/>
<stop offset="1" stop-color="#F45CE0"/>
</linearGradient>
<linearGradient id="paint17_linear_23_462" x1="22" y1="65" x2="28" y2="65" gradientUnits="userSpaceOnUse">
<stop stop-color="#00EDF9"/>
<stop offset="1" stop-color="#F45CE0"/>
</linearGradient>
<linearGradient id="paint18_linear_23_462" x1="44" y1="65" x2="50" y2="65" gradientUnits="userSpaceOnUse">
<stop stop-color="#00EDF9"/>
<stop offset="1" stop-color="#F45CE0"/>
</linearGradient>
<linearGradient id="paint19_linear_23_462" x1="66" y1="65" x2="72" y2="65" gradientUnits="userSpaceOnUse">
<stop stop-color="#00EDF9"/>
<stop offset="1" stop-color="#F45CE0"/>
</linearGradient>
<linearGradient id="paint20_linear_23_462" x1="88" y1="65" x2="94" y2="65" gradientUnits="userSpaceOnUse">
<stop stop-color="#00EDF9"/>
<stop offset="1" stop-color="#F45CE0"/>
</linearGradient>
<linearGradient id="paint21_linear_23_462" x1="110" y1="65" x2="116" y2="65" gradientUnits="userSpaceOnUse">
<stop stop-color="#00EDF9"/>
<stop offset="1" stop-color="#F45CE0"/>
</linearGradient>
<linearGradient id="paint22_linear_23_462" x1="132" y1="65" x2="138" y2="65" gradientUnits="userSpaceOnUse">
<stop stop-color="#00EDF9"/>
<stop offset="1" stop-color="#F45CE0"/>
</linearGradient>
<linearGradient id="paint23_linear_23_462" x1="154" y1="65" x2="160" y2="65" gradientUnits="userSpaceOnUse">
<stop stop-color="#00EDF9"/>
<stop offset="1" stop-color="#F45CE0"/>
</linearGradient>
<linearGradient id="paint24_linear_23_462" x1="-1.74626e-10" y1="96" x2="6" y2="96" gradientUnits="userSpaceOnUse">
<stop stop-color="#00EDF9"/>
<stop offset="1" stop-color="#F45CE0"/>
</linearGradient>
<linearGradient id="paint25_linear_23_462" x1="22" y1="96" x2="28" y2="96" gradientUnits="userSpaceOnUse">
<stop stop-color="#00EDF9"/>
<stop offset="1" stop-color="#F45CE0"/>
</linearGradient>
<linearGradient id="paint26_linear_23_462" x1="44" y1="96" x2="50" y2="96" gradientUnits="userSpaceOnUse">
<stop stop-color="#00EDF9"/>
<stop offset="1" stop-color="#F45CE0"/>
</linearGradient>
<linearGradient id="paint27_linear_23_462" x1="66" y1="96" x2="72" y2="96" gradientUnits="userSpaceOnUse">
<stop stop-color="#00EDF9"/>
<stop offset="1" stop-color="#F45CE0"/>
</linearGradient>
<linearGradient id="paint28_linear_23_462" x1="88" y1="96" x2="94" y2="96" gradientUnits="userSpaceOnUse">
<stop stop-color="#00EDF9"/>
<stop offset="1" stop-color="#F45CE0"/>
</linearGradient>
<linearGradient id="paint29_linear_23_462" x1="110" y1="96" x2="116" y2="96" gradientUnits="userSpaceOnUse">
<stop stop-color="#00EDF9"/>
<stop offset="1" stop-color="#F45CE0"/>
</linearGradient>
<linearGradient id="paint30_linear_23_462" x1="132" y1="96" x2="138" y2="96" gradientUnits="userSpaceOnUse">
<stop stop-color="#00EDF9"/>
<stop offset="1" stop-color="#F45CE0"/>
</linearGradient>
<linearGradient id="paint31_linear_23_462" x1="154" y1="96" x2="160" y2="96" gradientUnits="userSpaceOnUse">
<stop stop-color="#00EDF9"/>
<stop offset="1" stop-color="#F45CE0"/>
</linearGradient>
</defs>
</svg>
