<svg width="41" height="37" viewBox="0 0 41 37" fill="none" xmlns="http://www.w3.org/2000/svg">
<path d="M40.9214 7.63892L26.5407 21.7965C24.9372 23.3711 22.7648 24.2553 20.5 24.2553C18.2352 24.2553 16.0628 23.3711 14.4593 21.7965L0.0785833 7.63892C0.0546667 7.90464 0 8.14514 0 8.40919V28.591C0.00271259 30.8204 0.903507 32.9577 2.50479 34.5342C4.10608 36.1106 6.27711 36.9974 8.54167 37.0001H32.4583C34.7229 36.9974 36.8939 36.1106 38.4952 34.5342C40.0965 32.9577 40.9973 30.8204 41 28.591V8.40919C41 8.14514 40.9453 7.90464 40.9214 7.63892Z" fill="url(#paint0_linear_23_145)"/>
<path d="M24.1251 19.4183L39.729 4.05486C38.9731 2.82094 37.907 1.79961 36.6335 1.08936C35.3599 0.379121 33.922 0.00393657 32.4583 0H8.54166C7.078 0.00393657 5.64006 0.379121 4.36654 1.08936C3.09302 1.79961 2.0269 2.82094 1.271 4.05486L16.8749 19.4183C17.8377 20.3623 19.1412 20.8923 20.5 20.8923C21.8588 20.8923 23.1623 20.3623 24.1251 19.4183Z" fill="url(#paint1_linear_23_145)"/>
<defs>
<linearGradient id="paint0_linear_23_145" x1="20.5" y1="7.63892" x2="20.5" y2="37.0001" gradientUnits="userSpaceOnUse">
<stop stop-color="#00EDF9"/>
<stop offset="1" stop-color="#1A7CDE"/>
</linearGradient>
<linearGradient id="paint1_linear_23_145" x1="20.5" y1="0" x2="20.5" y2="20.8923" gradientUnits="userSpaceOnUse">
<stop stop-color="#00EDF9"/>
<stop offset="1" stop-color="#1A7CDE"/>
</linearGradient>
</defs>
</svg>
