<svg width="38" height="73" viewBox="0 0 38 73" fill="none" xmlns="http://www.w3.org/2000/svg">
<path d="M36.433 71.4839C36.9295 70.9992 37.3236 70.4226 37.5926 69.7872C37.8615 69.1519 38 68.4704 38 67.7822C38 67.0939 37.8615 66.4124 37.5926 65.7771C37.3236 65.1418 36.9295 64.5651 36.433 64.0805L12.1703 40.2017C11.6738 39.717 11.2797 39.1404 11.0107 38.5051C10.7418 37.8697 10.6033 37.1883 10.6033 36.5C10.6033 35.8117 10.7418 35.1303 11.0107 34.4949C11.2797 33.8596 11.6738 33.283 12.1703 32.7983L36.433 8.91955C36.9295 8.43487 37.3236 7.85823 37.5926 7.22289C37.8615 6.58756 38 5.9061 38 5.21783C38 4.52956 37.8615 3.8481 37.5926 3.21276C37.3236 2.57742 36.9295 2.00078 36.433 1.5161C35.4404 0.545048 34.0978 0 32.6982 0C31.2987 0 29.956 0.545048 28.9635 1.5161L4.64784 25.447C1.67168 28.3797 0 32.3551 0 36.5C0 40.6449 1.67168 44.6203 4.64784 47.553L28.9635 71.4839C29.956 72.4549 31.2987 73 32.6982 73C34.0978 73 35.4404 72.4549 36.433 71.4839Z" fill="url(#paint0_linear_18_132)"/>
<defs>
<linearGradient id="paint0_linear_18_132" x1="38" y1="36.5" x2="0" y2="36.5" gradientUnits="userSpaceOnUse">
<stop stop-color="#00EDF9"/>
<stop offset="1" stop-color="#1A7CDE"/>
</linearGradient>
</defs>
</svg>
