<svg width="41" height="50" viewBox="0 0 41 50" fill="none" xmlns="http://www.w3.org/2000/svg">
<path d="M20.5 0C15.0653 0.00606476 9.85478 2.19849 6.01164 6.0963C2.1685 9.99411 0.00652363 15.279 0 20.7916C0 26.1458 4.08727 34.5249 12.1488 45.6958C13.1085 47.0294 14.3651 48.1143 15.8163 48.8622C17.2675 49.6102 18.8722 50 20.5 50C22.1278 50 23.7325 49.6102 25.1837 48.8622C26.6349 48.1143 27.8915 47.0294 28.8512 45.6958C36.9127 34.5249 41 26.1458 41 20.7916C40.9935 15.279 38.8315 9.99411 34.9884 6.0963C31.1452 2.19849 25.9347 0.00606476 20.5 0ZM20.5 29.0791C18.8751 29.0791 17.2867 28.5904 15.9357 27.6747C14.5846 26.759 13.5316 25.4575 12.9098 23.9348C12.2879 22.4121 12.1252 20.7366 12.4422 19.1201C12.7592 17.5035 13.5417 16.0187 14.6907 14.8533C15.8397 13.6878 17.3035 12.8941 18.8972 12.5726C20.4909 12.2511 22.1428 12.4161 23.644 13.0468C25.1452 13.6775 26.4283 14.7456 27.331 16.1161C28.2338 17.4865 28.7156 19.0976 28.7156 20.7458C28.7156 22.9559 27.85 25.0755 26.3093 26.6383C24.7686 28.2011 22.6789 29.0791 20.5 29.0791Z" fill="url(#paint0_linear_23_139)"/>
<defs>
<linearGradient id="paint0_linear_23_139" x1="20.5" y1="0" x2="20.5" y2="50" gradientUnits="userSpaceOnUse">
<stop stop-color="#00EDF9"/>
<stop offset="1" stop-color="#1A7CDE"/>
</linearGradient>
</defs>
</svg>
