<svg width="38" height="38" viewBox="0 0 38 38" fill="none" xmlns="http://www.w3.org/2000/svg">
<path d="M36.4144 17.4157C35.9938 17.4157 35.5905 17.2489 35.2931 16.952C34.9958 16.6551 34.8287 16.2525 34.8287 15.8327C34.8254 12.475 33.4878 9.25585 31.1096 6.88164C28.7315 4.50742 25.5069 3.17211 22.1436 3.16876C21.7231 3.16876 21.3198 3.00198 21.0224 2.70512C20.7251 2.40825 20.558 2.00561 20.558 1.58577C20.558 1.16594 20.7251 0.7633 21.0224 0.466432C21.3198 0.169564 21.7231 0.00278553 22.1436 0.00278553C26.3476 0.00739455 30.378 1.67666 33.3507 4.64434C36.3233 7.61202 37.9954 11.6357 38 15.8327C38 16.2525 37.8329 16.6551 37.5356 16.952C37.2382 17.2489 36.8349 17.4157 36.4144 17.4157ZM31.6575 15.8327C31.6575 13.3137 30.6551 10.8978 28.8709 9.11662C27.0867 7.33541 24.6669 6.33474 22.1436 6.33474C21.7231 6.33474 21.3198 6.50152 21.0224 6.79839C20.7251 7.09525 20.558 7.49789 20.558 7.91773C20.558 8.33756 20.7251 8.7402 21.0224 9.03707C21.3198 9.33394 21.7231 9.50072 22.1436 9.50072C23.8258 9.50072 25.439 10.1678 26.6285 11.3553C27.8179 12.5428 28.4862 14.1533 28.4862 15.8327C28.4862 16.2525 28.6532 16.6551 28.9506 16.952C29.248 17.2489 29.6513 17.4157 30.0718 17.4157C30.4924 17.4157 30.8957 17.2489 31.193 16.952C31.4904 16.6551 31.6575 16.2525 31.6575 15.8327ZM35.1189 35.0881L36.5618 33.4276C37.4802 32.5078 37.9959 31.262 37.9959 29.9632C37.9959 28.6645 37.4802 27.4187 36.5618 26.4988C36.5127 26.4498 32.6976 23.5197 32.6976 23.5197C31.782 22.6495 30.5658 22.165 29.3017 22.1668C28.0375 22.1686 26.8227 22.6565 25.9095 23.5292L22.8873 26.0714C20.4203 25.0521 18.1794 23.5563 16.2931 21.67C14.4068 19.7836 12.9124 17.5438 11.8957 15.0792L14.4327 12.0715C15.3075 11.16 15.7968 9.94692 15.7989 8.68453C15.8009 7.42214 15.3156 6.20751 14.4438 5.29313C14.4438 5.29313 11.5056 1.48921 11.4564 1.44014C10.5518 0.531105 9.32516 0.0139013 8.04166 0.00027615C6.75816 -0.013349 5.52082 0.477698 4.59698 1.36732L2.7735 2.95031C-7.99932 15.4274 15.1985 38.4077 28.1088 37.9945C29.4125 38.002 30.7045 37.7488 31.9085 37.2496C33.1125 36.7504 34.2041 36.0155 35.1189 35.0881Z" fill="url(#paint0_linear_23_137)"/>
<defs>
<linearGradient id="paint0_linear_23_137" x1="19" y1="0" x2="19" y2="38" gradientUnits="userSpaceOnUse">
<stop stop-color="#00EDF9"/>
<stop offset="1" stop-color="#1A7CDE"/>
</linearGradient>
</defs>
</svg>
