<svg width="38" height="73" viewBox="0 0 38 73" fill="none" xmlns="http://www.w3.org/2000/svg">
<path d="M1.567 1.51611C1.07047 2.00079 0.676364 2.57743 0.407415 3.21277C0.138467 3.84811 0 4.52956 0 5.21783C0 5.90611 0.138467 6.58756 0.407415 7.2229C0.676364 7.85824 1.07047 8.43487 1.567 8.91955L25.8297 32.7983C26.3262 33.283 26.7203 33.8596 26.9893 34.4949C27.2582 35.1303 27.3967 35.8117 27.3967 36.5C27.3967 37.1883 27.2582 37.8697 26.9893 38.5051C26.7203 39.1404 26.3262 39.717 25.8297 40.2017L1.567 64.0804C1.07047 64.5651 0.676364 65.1418 0.407415 65.7771C0.138467 66.4124 0 67.0939 0 67.7822C0 68.4704 0.138467 69.1519 0.407415 69.7872C0.676364 70.4226 1.07047 70.9992 1.567 71.4839C2.55956 72.455 3.90222 73 5.30176 73C6.70129 73 8.04395 72.455 9.03651 71.4839L33.3522 47.553C36.3283 44.6203 38 40.6449 38 36.5C38 32.3551 36.3283 28.3797 33.3522 25.447L9.03651 1.51611C8.04395 0.545059 6.70129 0 5.30176 0C3.90222 0 2.55956 0.545059 1.567 1.51611Z" fill="url(#paint0_linear_18_133)"/>
<defs>
<linearGradient id="paint0_linear_18_133" x1="0" y1="36.5" x2="38" y2="36.5" gradientUnits="userSpaceOnUse">
<stop stop-color="#00EDF9"/>
<stop offset="1" stop-color="#1A7CDE"/>
</linearGradient>
</defs>
</svg>
