<svg width="28" height="34" viewBox="0 0 28 34" fill="none" xmlns="http://www.w3.org/2000/svg">
<path d="M27.3221 11.0485L17.2899 1.319C16.4156 0.474189 15.233 0 14.0003 0C12.7675 0 11.5849 0.474189 10.7106 1.319L0.678439 11.0485C0.243903 11.4734 0 12.0482 0 12.6474C0 13.2465 0.243903 13.8213 0.678439 14.2463C0.895328 14.4588 1.15337 14.6275 1.43767 14.7427C1.72198 14.8578 2.02693 14.9171 2.33492 14.9171C2.64291 14.9171 2.94786 14.8578 3.23216 14.7427C3.51647 14.6275 3.77451 14.4588 3.9914 14.2463L11.6672 6.78473V31.7321C11.6672 32.3336 11.913 32.9104 12.3505 33.3357C12.7881 33.7611 13.3815 34 14.0003 34C14.619 34 15.2125 33.7611 15.65 33.3357C16.0875 32.9104 16.3333 32.3336 16.3333 31.7321V6.78473L24.0091 14.2463C24.4454 14.6733 25.0383 14.9144 25.6574 14.9166C26.2765 14.9187 26.8711 14.6816 27.3104 14.2576C27.7498 13.8335 27.9978 13.2572 28 12.6554C28.0022 12.0535 27.7583 11.4755 27.3221 11.0485Z" fill="white"/>
</svg>
